<?xml version="1.0" standalone="no"?>
<!DOCTYPE svg PUBLIC "-//W3C//DTD SVG 20010904//EN"
 "http://www.w3.org/TR/2001/REC-SVG-20010904/DTD/svg10.dtd">
<svg version="1.0" xmlns="http://www.w3.org/2000/svg"
 width="618.000000pt" height="618.000000pt" viewBox="0 0 618.000000 618.000000"
 preserveAspectRatio="xMidYMid meet">
<metadata>
Created by potrace 1.14, written by Peter Selinger 2001-2017
</metadata>
<g transform="translate(0.000000,618.000000) scale(0.100000,-0.100000)"
fill="#000000" stroke="none">
<path d="M2405 5453 c-70 -8 -234 -47 -299 -70 -301 -108 -597 -345 -709 -569
-85 -169 -76 -364 25 -544 183 -325 495 -521 860 -537 115 -6 117 -5 142 20
56 56 23 146 -59 161 -19 4 -76 28 -127 53 -76 38 -109 63 -179 133 -75 74
-94 100 -137 191 -109 223 -91 364 64 508 150 141 369 209 669 208 209 0 390
-36 555 -109 30 -14 147 -71 260 -126 374 -185 480 -208 965 -206 293 0 303 2
331 55 20 39 11 82 -23 109 -25 19 -38 20 -263 17 -464 -6 -597 21 -937 194
-211 106 -335 161 -431 189 -309 90 -669 85 -947 -14 -297 -106 -495 -336
-496 -576 -1 -133 51 -295 133 -417 28 -42 30 -55 3 -30 -134 123 -207 219
-252 329 -70 173 -27 315 149 491 187 187 434 313 689 352 70 11 266 8 354 -5
131 -19 296 -58 540 -127 274 -77 474 -127 570 -142 39 -7 86 -14 105 -17 64
-11 473 -13 580 -3 125 12 156 22 176 61 19 37 11 78 -22 109 -22 21 -34 24
-87 21 -34 -1 -73 -5 -87 -7 -47 -10 -395 -13 -480 -4 -177 19 -330 54 -682
154 -232 65 -409 108 -538 130 -88 15 -345 26 -415 18z"/>
<path d="M2115 4451 c-62 -18 -95 -76 -76 -134 13 -37 62 -87 206 -206 136
-114 258 -240 313 -324 55 -86 93 -173 162 -377 59 -176 111 -284 173 -357
121 -144 333 -245 630 -299 97 -18 337 -27 388 -15 21 5 42 6 47 2 6 -3 12
-45 13 -91 6 -244 54 -369 169 -442 l25 -15 -37 -59 c-61 -100 -97 -204 -98
-281 0 -44 27 -121 57 -161 14 -18 23 -36 20 -38 -3 -3 -58 -21 -123 -40 -284
-85 -393 -176 -380 -319 6 -66 24 -102 71 -143 62 -55 124 -67 345 -66 184 1
215 4 382 39 47 9 230 76 282 102 160 80 321 223 421 373 211 317 303 754 234
1110 -75 387 -318 745 -628 924 -119 69 -201 98 -526 187 -121 33 -569 177
-995 319 -869 291 -1008 331 -1075 311z"/>
<path d="M2745 1755 c-55 -19 -83 -42 -105 -85 -42 -82 -13 -211 67 -300 44
-50 140 -115 203 -140 19 -7 36 -14 38 -15 1 -1 -60 -64 -136 -141 -100 -101
-146 -155 -168 -199 -49 -98 -34 -172 46 -219 58 -34 231 -18 385 36 170 59
292 150 379 282 85 127 128 324 91 418 -71 188 -605 429 -800 363z"/>
</g>
</svg>
